<svg width="610" height="664" viewBox="0 0 610 664" fill="none" xmlns="http://www.w3.org/2000/svg">
    <g clip-path="url(#clip0_6_262)">
        <path d="M610 597.923C610 618.076 473.447 664 305 664C136.553 664 0 618.076 0 597.923C0 577.77 136.553 591.019 305 591.019C473.447 591.019 610 577.77 610 597.923Z" fill="#3F3D56"/>
        <path opacity="0.1" d="M610 597.923C610 618.076 473.447 664 305 664C136.553 664 0 618.076 0 597.923C0 577.77 136.553 591.019 305 591.019C473.447 591.019 610 577.77 610 597.923Z" fill="black"/>
        <path d="M86.8609 329.669C93.9477 329.669 99.6926 323.929 99.6926 316.848C99.6926 309.767 93.9477 304.027 86.8609 304.027C79.7741 304.027 74.0292 309.767 74.0292 316.848C74.0292 323.929 79.7741 329.669 86.8609 329.669Z" fill="#C3ACFA"/>
        <path d="M143.123 435.195C150.21 435.195 155.955 429.455 155.955 422.374C155.955 415.294 150.21 409.554 143.123 409.554C136.036 409.554 130.291 415.294 130.291 422.374C130.291 429.455 136.036 435.195 143.123 435.195Z" fill="#C3ACFA"/>
        <path d="M99.6924 408.567C106.779 408.567 112.524 402.827 112.524 395.746C112.524 388.666 106.779 382.925 99.6924 382.925C92.6057 382.925 86.8607 388.666 86.8607 395.746C86.8607 402.827 92.6057 408.567 99.6924 408.567Z" fill="#C3ACFA"/>
        <path d="M103.785 577.726C103.559 577.356 98.2177 568.446 96.366 549.942C94.6676 532.967 95.7597 504.353 110.612 464.438C138.749 388.824 104.127 327.813 103.774 327.206L105.482 326.215C105.571 326.37 114.505 341.925 119.782 366.694C126.756 399.533 124.216 433.678 112.462 465.126C84.3738 540.612 105.256 576.346 105.47 576.699L103.785 577.726Z" fill="#CFCCE0"/>
        <path d="M92.7831 323.752C90.05 323.752 87.3783 322.942 85.1058 321.425C82.8334 319.908 81.0622 317.751 80.0162 315.228C78.9703 312.705 78.6967 309.929 79.2299 307.251C79.7631 304.573 81.0792 302.112 83.0118 300.181C84.9444 298.251 87.4067 296.936 90.0872 296.403C92.7678 295.87 95.5463 296.143 98.0714 297.188C100.596 298.233 102.755 300.003 104.273 302.274C105.791 304.544 106.602 307.214 106.602 309.945C106.598 313.605 105.141 317.115 102.55 319.703C99.9593 322.292 96.4469 323.748 92.7831 323.752V323.752ZM92.7831 298.11C90.4405 298.11 88.1505 298.804 86.2026 300.104C84.2548 301.405 82.7366 303.253 81.8401 305.416C80.9436 307.578 80.709 309.958 81.1661 312.253C81.6231 314.549 82.7512 316.658 84.4077 318.313C86.0642 319.968 88.1747 321.095 90.4724 321.552C92.77 322.009 95.1516 321.774 97.3159 320.878C99.4802 319.983 101.33 318.466 102.632 316.52C103.933 314.573 104.628 312.285 104.628 309.945C104.624 306.807 103.375 303.799 101.155 301.58C98.9341 299.362 95.9234 298.114 92.7831 298.11V298.11Z" fill="#CFCCE0"/>
        <path d="M133.252 370.105C140.339 370.105 146.084 364.364 146.084 357.284C146.084 350.203 140.339 344.463 133.252 344.463C126.166 344.463 120.421 350.203 120.421 357.284C120.421 364.364 126.166 370.105 133.252 370.105Z" fill="#CFCCE0"/>
        <path d="M105.615 402.65C102.882 402.65 100.21 401.84 97.9373 400.323C95.6649 398.806 93.8937 396.65 92.8478 394.127C91.8019 391.604 91.5282 388.828 92.0614 386.149C92.5946 383.471 93.9107 381.011 95.8433 379.08C97.7759 377.149 100.238 375.834 102.919 375.301C105.599 374.768 108.378 375.042 110.903 376.087C113.428 377.132 115.586 378.901 117.105 381.172C118.623 383.443 119.433 386.112 119.433 388.843C119.429 392.503 117.972 396.013 115.382 398.601C112.791 401.19 109.278 402.646 105.615 402.65ZM105.615 377.008C103.272 377.008 100.982 377.702 99.0341 379.003C97.0863 380.303 95.5681 382.151 94.6716 384.314C93.7751 386.476 93.5405 388.856 93.9976 391.152C94.4546 393.447 95.5827 395.556 97.2392 397.211C98.8957 398.866 101.006 399.994 103.304 400.45C105.602 400.907 107.983 400.672 110.147 399.777C112.312 398.881 114.162 397.364 115.463 395.418C116.765 393.472 117.459 391.184 117.459 388.843C117.456 385.705 116.207 382.697 113.986 380.478C111.766 378.26 108.755 377.012 105.615 377.008V377.008Z" fill="#CFCCE0"/>
        <path d="M139.175 429.278C136.442 429.278 133.77 428.468 131.497 426.951C129.225 425.434 127.454 423.278 126.408 420.755C125.362 418.232 125.088 415.456 125.621 412.777C126.155 410.099 127.471 407.639 129.403 405.708C131.336 403.777 133.798 402.462 136.479 401.929C139.159 401.396 141.938 401.67 144.463 402.715C146.988 403.76 149.146 405.53 150.665 407.8C152.183 410.071 152.994 412.74 152.993 415.471C152.989 419.132 151.532 422.641 148.942 425.23C146.351 427.818 142.838 429.274 139.175 429.278V429.278ZM139.175 403.636C136.832 403.636 134.542 404.33 132.594 405.631C130.646 406.931 129.128 408.78 128.232 410.942C127.335 413.105 127.101 415.484 127.558 417.78C128.015 420.076 129.143 422.184 130.799 423.839C132.456 425.494 134.566 426.622 136.864 427.078C139.162 427.535 141.543 427.3 143.707 426.405C145.872 425.509 147.722 423.992 149.023 422.046C150.325 420.1 151.019 417.812 151.019 415.471C151.016 412.333 149.767 409.325 147.546 407.106C145.326 404.888 142.315 403.64 139.175 403.636Z" fill="#CFCCE0"/>
        <path d="M95.7443 469.713C102.831 469.713 108.576 463.973 108.576 456.892C108.576 449.812 102.831 444.071 95.7443 444.071C88.6576 444.071 82.9126 449.812 82.9126 456.892C82.9126 463.973 88.6576 469.713 95.7443 469.713Z" fill="#CFCCE0"/>
        <path d="M111.537 578.198C111.537 578.198 98.7055 546.639 137.201 522.97L111.537 578.198Z" fill="#CFCCE0"/>
        <path d="M95.7562 577.626C95.7562 577.626 89.9163 544.065 44.717 544.353L95.7562 577.626Z" fill="#CFCCE0"/>
        <path d="M559.006 590.033H340.597C340.597 590.033 336.17 525.155 362.364 524.418C388.558 523.68 385.607 553.17 418.442 512.622C451.277 472.073 491.122 474.285 496.287 498.245C501.452 522.206 486.326 541.374 513.996 535.476C541.666 529.578 581.511 545.061 559.006 590.033Z" fill="#C3ACFA"/>
        <path d="M446.115 590.048L445.378 590.018C447.097 547.303 456.05 519.858 463.259 504.357C471.085 487.525 478.627 480.711 478.702 480.644L479.193 481.195C479.119 481.262 471.665 488.008 463.901 504.725C456.732 520.161 447.828 547.494 446.115 590.048Z" fill="#F2F2F2"/>
        <path d="M525.163 590.136L524.455 589.93C532.984 560.678 553.07 542.21 553.272 542.026L553.768 542.572C553.567 542.754 533.632 561.092 525.163 590.136Z" fill="#F2F2F2"/>
        <path d="M374.998 590.084L374.266 589.982C377.16 569.129 371.933 552.95 367.038 543.05C361.738 532.33 355.691 526.475 355.63 526.417L356.141 525.885C356.202 525.944 362.343 531.888 367.7 542.723C372.64 552.716 377.917 569.045 374.998 590.084Z" fill="#F2F2F2"/>
        <path d="M588.649 591.019H317.039L316.977 590.1C316.821 587.813 313.356 533.87 330.849 514.622C334.76 510.32 339.47 508.061 344.85 507.91C356.253 507.586 363.418 511.853 369.198 515.279C380.092 521.736 387.288 526.002 413.455 493.689C441.801 458.683 472.385 451.152 489.967 455.339C501.327 458.046 509.156 465.694 511.448 476.324C513.618 486.39 512.926 495.847 512.371 503.447C511.777 511.578 511.307 518 514.65 520.911C517.44 523.339 523.009 523.56 532.175 521.606C550.819 517.632 576.832 521.032 589.89 537.889C596.915 546.957 602.449 563.442 588.921 590.474L588.649 591.019ZM318.893 589.047H587.426C597.507 568.613 597.821 551.351 588.329 539.096C576.35 523.633 551.221 519.563 532.587 523.535C522.628 525.658 516.694 525.308 513.353 522.398C509.266 518.84 509.768 511.984 510.402 503.303C510.948 495.83 511.628 486.528 509.518 476.739C507.393 466.882 500.1 459.781 489.509 457.258C472.488 453.201 442.758 460.637 414.989 494.929C387.751 528.567 379.545 523.705 368.191 516.975C362.34 513.508 355.697 509.576 344.906 509.881C340.083 510.017 335.846 512.058 332.31 515.948C316.588 533.246 318.508 581.754 318.893 589.047Z" fill="#CFCCE0"/>
        <path d="M305 634.413C473.447 634.413 610 618.076 610 597.923C610 577.77 473.447 561.432 305 561.432C136.553 561.432 0 577.77 0 597.923C0 618.076 136.553 634.413 305 634.413Z" fill="#3F3D56"/>
        <path d="M311.706 120.565C311.706 120.565 296.458 115.124 286.656 136.888C276.854 158.653 261.606 182.594 261.606 182.594L270.319 184.77C270.319 184.77 272.497 169.535 277.943 167.359L275.765 186.947C275.765 186.947 341.113 209.799 370.52 184.77L369.431 177.153C369.431 177.153 373.787 178.241 373.787 184.77L377.055 181.506C377.055 181.506 373.787 174.976 363.985 166.27C357.551 160.556 355.34 149.685 354.581 142.888C354.011 137.213 351.739 131.842 348.061 127.48C341.547 119.937 329.677 111.919 311.706 120.565Z" fill="#2F2E41"/>
        <path d="M295.623 205.898L279.83 186.173L267.985 145.738L313.39 97.4127C313.39 97.4127 323.261 59.9361 314.377 61.9086C305.494 63.881 303.519 91.4954 303.519 91.4954L246.27 135.876C246.27 135.876 252.193 198.008 268.973 219.705L281.804 260.14L295.623 205.898Z" fill="#FFB9B9"/>
        <path d="M339.053 205.898L354.846 186.173L366.691 145.738L321.286 97.4127C321.286 97.4127 311.416 59.9361 320.299 61.9086C329.183 63.881 331.157 91.4954 331.157 91.4954L388.406 135.876C388.406 135.876 382.484 198.008 365.704 219.705L352.872 260.14L339.053 205.898Z" fill="#FFB9B9"/>
        <path d="M317.338 189.132C331.512 189.132 343.002 177.652 343.002 163.49C343.002 149.328 331.512 137.848 317.338 137.848C303.165 137.848 291.675 149.328 291.675 163.49C291.675 177.652 303.165 189.132 317.338 189.132Z" fill="#FFB9B9"/>
        <path d="M305.493 177.297C305.493 177.297 306.48 198.008 300.558 204.912C294.636 211.815 288.713 247.319 317.338 248.305C345.962 249.292 343.001 218.719 343.001 218.719L337.079 201.953C337.079 201.953 328.196 189.132 331.157 177.297H305.493Z" fill="#FFB9B9"/>
        <path d="M278.843 407.088L300.065 413.498C300.065 413.498 317.338 403.143 317.338 413.005C317.338 422.868 311.416 435.689 313.39 444.565C315.364 453.441 319.312 475.138 313.39 475.138C307.468 475.138 295.623 436.675 295.623 436.675L275.882 425.826L278.843 407.088Z" fill="#FFB9B9"/>
        <path d="M305.494 545.16L297.597 575.733C297.597 575.733 290.688 584.609 297.597 588.554C300.839 590.405 303.212 594.21 304.818 597.729C306.217 600.897 308.558 603.558 311.524 605.351C314.49 607.144 317.936 607.981 321.394 607.749C324.763 607.469 327.601 606.139 328.292 602.68C328.483 601.595 328.445 600.482 328.182 599.412C327.919 598.342 327.436 597.338 326.763 596.465C319.482 586.634 317.832 580.171 317.832 580.171L320.793 545.653L305.494 545.16Z" fill="#FFB9B9"/>
        <path d="M286.38 168.044C286.38 168.044 295.094 156.074 302.718 153.897C310.342 151.721 311.431 140.838 311.431 140.838C311.431 140.838 331.035 162.603 343.016 163.691C354.996 164.779 344.105 137.574 344.105 137.574L322.322 132.133L301.628 134.309L285.291 145.191L286.38 168.044Z" fill="#2F2E41"/>
        <path d="M269.96 332.135L266.011 340.025C266.011 340.025 170.267 370.598 178.163 399.198C186.06 427.799 230.477 419.909 230.477 419.909L279.83 428.785L284.765 407.088L250.219 398.212L309.442 376.515L311.416 477.11L303.519 549.105L323.261 551.077C323.261 551.077 344.976 485 342.015 457.386C342.015 457.386 378.536 344.956 357.808 328.19C337.079 311.424 269.96 332.135 269.96 332.135Z" fill="#2F2E41"/>
        <path d="M318.496 218.732L303.094 200.134L292.662 204.912L281.804 239.429C281.804 239.429 272.921 256.195 283.778 273.947C283.778 273.947 285.753 285.782 282.791 288.741C279.83 291.7 278.843 310.438 278.843 310.438L266.011 335.094C266.011 335.094 339.054 347.915 360.769 330.162C360.769 330.162 349.374 288.187 356.283 275.366C363.193 262.545 364.18 242.891 356.283 234.015C348.387 225.138 340.041 201.953 340.041 201.953L335.26 198.898L318.496 218.732Z" fill="#CFCCE0"/>
        <path d="M376.077 71.4863H366.61V62.0276H365.75V71.4863H356.283V72.3457H365.75V81.8045H366.61V72.3457H376.077V71.4863Z" fill="#CFCCE0"/>
        <path d="M286.106 51.7095H276.639V42.2507H275.779V51.7095H266.313V52.5689H275.779V62.0276H276.639V52.5689H286.106V51.7095Z" fill="#CFCCE0"/>
        <path d="M329.292 9.45873H319.826V0H318.965V9.45873H309.498V10.3182H318.965V19.7769H319.826V10.3182H329.292V9.45873Z" fill="#CFCCE0"/>
    </g>
    <defs>
        <clipPath id="clip0_6_262">
            <rect width="610" height="664" fill="white"/>
        </clipPath>
    </defs>
</svg>
