<svg width="85" height="87" viewBox="0 0 85 87" fill="none" xmlns="http://www.w3.org/2000/svg">
    <path d="M37.3774 3.15186L37.484 3.08669C39.3801 1.96528 41.5433 1.37305 43.7477 1.37305C45.9948 1.37305 48.199 1.98841 50.1212 3.15236C50.1215 3.15255 50.1218 3.15275 50.1221 3.15294L54.8308 6.03317L54.8309 6.03325C61.5276 10.1267 69.1403 11.0392 76.6605 11.9407L76.7302 11.9491L76.7304 11.9491L76.8919 11.9685C79.1442 12.2391 81.3866 12.5084 83.6068 12.8638C83.6076 12.9446 83.6085 13.0355 83.6095 13.1353C83.6136 13.5624 83.6185 14.1519 83.6217 14.8013C83.628 16.1028 83.6274 17.6361 83.5999 18.5885L83.1166 35.125C82.7045 49.167 76.4608 62.4869 65.7409 72.1709C60.6531 76.7654 55.4033 80.9052 49.3796 84.3407C47.6621 85.312 45.7366 85.8568 43.7648 85.9291C41.7928 86.0014 39.8323 85.5991 38.0482 84.7559C31.0897 81.4479 24.9278 77.253 19.2987 72.1709C8.57884 62.4869 2.33514 49.1671 1.9253 35.125L1.44431 18.6415L1.4443 18.6413C1.41569 17.6742 1.4156 16.1279 1.42283 14.8169C1.42644 14.1628 1.43185 13.5696 1.43636 13.1398C1.43734 13.0464 1.43828 12.9606 1.43915 12.8837C3.25833 12.6755 5.10909 12.4982 6.97886 12.3204C6.97888 12.3204 6.97889 12.3204 6.9789 12.3204L7.04149 12.3145C15.9079 11.4722 25.2106 10.5886 32.8611 5.91303L32.8611 5.91298L37.3774 3.15186ZM37.8751 21.1878H37.3751V21.6878V37.3753H21.6876H21.1876V37.8753V47.1253V47.6253H21.6876H37.3751V63.3128V63.8128H37.8751H47.1251H47.6251V63.3128V47.6253H63.3126H63.8126V47.1253V37.8753V37.3753H63.3126H47.6251V21.6878V21.1878H47.1251H37.8751Z" stroke="#39374D"/>
</svg>
