<svg width="87" height="87" viewBox="0 0 87 87" fill="none" xmlns="http://www.w3.org/2000/svg">
    <path d="M55.3909 57.3936L59.3591 65.9267C59.3591 65.9267 77.1978 69.7146 77.1978 78.7241C77.1978 85.1251 69.2613 85.1251 69.2613 85.1251H48.125L37.7188 79.3438" stroke="#39374D" stroke-width="1.875" stroke-linecap="round" stroke-linejoin="round"/>
    <path d="M31.609 57.3936L27.6454 65.9267C27.6454 65.9267 9.80212 69.7146 9.80212 78.7241C9.80212 85.1251 17.7386 85.1251 17.7386 85.1251H27.3124L37.7186 79.3438L50.4374 71.2501" stroke="#39374D" stroke-width="1.875" stroke-linecap="round" stroke-linejoin="round"/>
    <path d="M1.875 61.6578C1.875 61.6578 11.7864 59.5257 17.7341 57.3936C23.6772 27.5253 41.5112 29.6574 43.5 29.6574C45.4841 29.6574 63.3227 27.5253 69.2659 57.3936C75.2136 59.5211 85.125 61.6578 85.125 61.6578" stroke="#39374D" stroke-width="1.875" stroke-linecap="round" stroke-linejoin="round"/>
    <path d="M43.5 20.375C45.9533 20.375 48.306 19.4004 50.0407 17.6657C51.7755 15.931 52.75 13.5783 52.75 11.125C52.75 8.67175 51.7755 6.31897 50.0407 4.58426C48.306 2.84955 45.9533 1.875 43.5 1.875C41.0467 1.875 38.694 2.84955 36.9593 4.58426C35.2246 6.31897 34.25 8.67175 34.25 11.125C34.25 13.5783 35.2246 15.931 36.9593 17.6657C38.694 19.4004 41.0467 20.375 43.5 20.375Z" stroke="#39374D" stroke-width="1.875" stroke-linecap="round" stroke-linejoin="round"/>
</svg>
