<svg width="522" height="587" viewBox="0 0 522 587" fill="none" xmlns="http://www.w3.org/2000/svg">
    <path d="M642.464 -295.246L729.196 432.113C729.196 432.113 431.132 482.609 417.323 395.781C403.514 308.953 540.969 302.532 340.541 215.527C140.112 128.522 134.511 -5.39055 243.19 -35.7953C351.868 -66.2001 446.459 -26.3887 408.214 -115.287C369.97 -204.185 425.696 -345.411 642.464 -295.246Z" fill="#C3ACFA" fill-opacity="0.5"/>
    <path d="M687.363 80.7029L687.519 83.1742C489.436 100.988 359.048 86.2939 284.549 70.8307C203.656 54.0414 169.172 32.6798 168.833 32.4659L171.185 30.5294C171.52 30.74 205.656 51.8462 285.998 68.4894C360.178 83.8562 490.026 98.4488 687.363 80.7029Z" fill="#F2F2F2"/>
    <path d="M715.771 317.522L715.592 320.013C618.073 321.867 545.38 348.19 501.571 369.947C454.136 393.505 429.481 416.87 429.237 417.104L426.575 415.697C426.822 415.46 451.856 391.734 499.799 367.924C544.019 345.964 617.383 319.393 715.771 317.522Z" fill="#F2F2F2"/>
    <path d="M635.251 -394.505L743.109 510.022L738.886 510.737C728.379 512.518 480.465 553.782 384.57 506.132C363.133 495.48 350.825 481.037 347.99 463.204C341.964 425.409 358.84 399.193 372.374 378.058C397.889 338.221 414.747 311.903 255.025 242.57C81.9955 167.461 35.0468 69.7579 47.4172 8.89801C55.413 -30.4243 87.6504 -60.7133 135.864 -74.203C181.519 -86.9756 225.501 -89.8857 260.841 -92.2244C298.653 -94.7261 328.52 -96.7021 340.643 -109.437C350.758 -120.067 349.568 -138.735 336.895 -168.183C311.127 -228.081 316.511 -316.587 389.224 -369.36C428.344 -397.753 502.327 -425.266 632.623 -395.113L635.251 -394.505ZM733.258 504.936L626.621 -389.348C528.186 -411.657 448.287 -403.193 395.424 -364.827C328.72 -316.415 319.889 -230.484 345.647 -170.617C359.413 -138.623 360.149 -118.669 348.03 -105.937C333.212 -90.3676 301.327 -88.2584 260.959 -85.5872C226.204 -83.2888 182.95 -80.4265 138.549 -68.0053C93.8384 -55.4966 63.9206 -27.2962 56.4673 9.365C44.475 68.285 90.646 163.195 260.148 236.776C426.416 308.951 407.206 338.956 380.615 380.476C366.915 401.872 351.38 426.163 357.078 461.931C359.621 477.917 370.737 490.904 390.118 500.534C476.302 543.361 699.709 510.237 733.258 504.936Z" fill="#CFCCE0"/>
</svg>
