<svg width="446" height="500" viewBox="0 0 446 500" fill="none" xmlns="http://www.w3.org/2000/svg">
    <path d="M364.795 -206.477L720.014 285.343C720.014 285.343 498.907 460.208 453.71 403.096C408.514 345.985 517.09 277.679 320.995 306.8C124.9 335.92 67.88 240.575 143.797 168.045C219.715 95.5153 311.771 80.8578 246.013 33.54C180.255 -13.7777 169.934 -142.852 364.795 -206.477Z" fill="#C3ACFA" fill-opacity="0.5"/>
    <path d="M548.452 47.6969L549.547 49.4321C396.436 154.127 285.294 203.72 219.021 226.887C147.061 252.042 110.817 252.378 110.459 252.378L111.601 249.874C111.954 249.872 147.817 249.511 219.274 224.504C285.252 201.414 395.917 151.997 548.452 47.6969Z" fill="#F2F2F2"/>
    <path d="M664.244 207.749L665.075 209.653C586.986 256.138 538.552 309.03 511.674 345.216C482.571 384.396 471.803 412.894 471.697 413.178L468.995 413.38C469.101 413.093 480.034 384.155 509.449 344.556C536.58 308.032 585.458 254.648 664.244 207.749Z" fill="#F2F2F2"/>
    <path d="M320.056 -275.733L761.798 335.883L758.665 338.361C750.871 344.525 566.678 489.431 470.496 498.959C448.994 501.089 433.385 496.222 424.104 484.492C404.418 459.639 407.781 432.656 410.435 410.936C415.44 369.993 418.748 342.944 262.481 366.152C93.193 391.293 16.9492 341.564 3.09046 291.329C-5.86136 258.87 8.32037 221.8 41.9999 189.622C73.8916 159.153 108.298 136.672 135.943 118.607C165.523 99.279 188.888 84.0124 193.694 69.0884C197.702 56.6334 189.422 43.5312 167.637 27.8591C123.331 -4.0231 92.9879 -71.2439 131.07 -143.489C151.557 -182.358 200.566 -236.717 317.694 -274.962L320.056 -275.733ZM751.842 336.722L315.102 -267.967C226.801 -238.731 165.543 -195.565 137.857 -143.043C102.923 -76.7683 129.471 -9.83541 173.756 22.029C197.423 39.0569 205.841 53.3099 201.036 68.2292C195.163 86.4738 170.22 102.772 138.641 123.406C111.452 141.171 77.6155 163.281 46.5991 192.912C15.3666 222.751 2.24086 257.221 10.588 287.482C23.9919 336.123 98.512 384.17 264.35 359.543C427.022 335.385 423.258 366.219 418.042 408.89C415.357 430.878 412.324 455.833 430.95 479.355C439.271 489.869 453.346 494.223 472.786 492.298C559.228 483.736 726.805 356.125 751.842 336.722Z" fill="#CFCCE0"/>
</svg>
