<svg width="562" height="130" viewBox="0 0 562 130" fill="none" xmlns="http://www.w3.org/2000/svg">
    <path d="M-116.075 53.8746L-139.446 -404.17C-139.446 -404.17 188.082 -423.008 194.612 -368.182C201.142 -313.357 51.7351 -315.204 260.249 -252.313C468.764 -189.423 436.584 -101.249 316 -86.8889C195.416 -72.5284 85.9596 -92.5414 118.739 -35.3807C171.239 26.9526 113.698 94.4492 -116.075 53.8746Z" fill="#C3ACFA" fill-opacity="0.5"/>
    <path d="M-120.217 -17.0862L-119.251 -18.602C29.5476 -5.02171 125.068 34.3821 126.016 34.779L123.31 35.899C122.37 35.5056 27.5257 -3.60225 -120.217 -17.0862Z" fill="#F2F2F2"/>
    <path d="M-117.889 116.185L-146.953 -453.429L-142.312 -453.695C-130.767 -454.36 141.582 -469.57 240.762 -435.718C262.933 -428.15 274.856 -418.603 276.196 -407.344C279.054 -383.478 258.246 -367.821 241.547 -355.196C210.068 -331.399 189.27 -315.678 355.435 -265.561C535.445 -211.27 576.792 -148.238 557.503 -110.749C545.036 -86.5267 507.205 -68.9805 453.709 -62.609C403.054 -56.5764 355.165 -56.6331 316.685 -56.6784C275.514 -56.7273 242.993 -56.7659 228.636 -49.3277C216.657 -43.1189 216.136 -31.4071 226.999 -12.4723C249.084 26.0415 234.677 81.098 150.854 110.964C105.758 127.032 23.0092 141.065 -115.104 116.677L-117.889 116.185ZM-136.782 -449.832L-108.048 113.331C-3.66244 131.462 83.6435 129.58 144.583 107.868C221.478 80.4703 239.367 27.1691 217.29 -11.3249C205.49 -31.8965 206.627 -44.3926 220.979 -51.8286C238.529 -60.9228 273.246 -60.8813 317.2 -60.8295C355.043 -60.7838 402.14 -60.7283 451.404 -66.5949C501.013 -72.5029 536.13 -88.8433 547.752 -111.426C566.444 -147.72 525.668 -208.973 349.328 -262.16C176.353 -314.331 200.054 -332.255 232.862 -357.057C249.765 -369.839 268.935 -384.35 266.235 -406.936C265.032 -417.029 254.259 -425.615 234.214 -432.457C145.078 -462.882 -99.9542 -451.713 -136.782 -449.832Z" fill="#CFCCE0"/>
</svg>