<svg width="206" height="474" viewBox="0 0 206 474" fill="none" xmlns="http://www.w3.org/2000/svg">
    <path d="M-441.088 502.951L-427.81 -229.441C-427.81 -229.441 -125.644 -238.813 -123.806 -150.913C-121.967 -63.0135 -259.014 -75.3986 -72.3242 38.1284C114.365 151.656 101.651 285.081 -10.1593 300.379C-121.969 315.678 -210.247 263.338 -184.484 356.622C-158.721 449.905 -233.187 582.211 -441.088 502.951Z" fill="#C3ACFA" fill-opacity="0.5"/>
    <path d="M-434.294 124.392L-434.111 121.922C-235.449 131.29 -108.284 163.63 -36.5901 189.109C41.2569 216.774 72.5051 242.639 72.8121 242.897L70.2185 244.495C69.9148 244.24 38.9761 218.676 -38.3445 191.231C-109.736 165.891 -236.38 133.725 -434.294 124.392Z" fill="#F2F2F2"/>
    <path d="M-447.48 602.267L-430.967 -308.519L-426.685 -308.651C-416.034 -308.982 -164.809 -316.05 -76.3085 -255.766C-56.5245 -242.29 -46.3013 -226.303 -45.9248 -208.251C-45.1099 -169.987 -65.4036 -146.318 -81.694 -127.226C-112.404 -91.2404 -132.693 -67.4679 16.0804 23.0009C177.249 121.007 210.434 224.2 189.879 282.804C176.595 320.669 140.528 346.278 90.9247 353.066C43.955 359.493 -0.0127217 356.377 -35.3415 353.874C-73.1417 351.195 -102.999 349.08 -116.746 360.042C-128.216 369.193 -129.583 387.849 -121.045 418.75C-103.687 481.603 -121.091 568.548 -200.322 610.911C-242.949 633.703 -319.993 650.869 -444.96 603.228L-447.48 602.267ZM-421.901 -302.137L-438.227 598.335C-343.755 633.86 -263.447 636.372 -205.846 605.574C-133.162 566.713 -112.695 482.788 -130.046 419.967C-139.321 386.395 -137.329 366.527 -123.587 355.568C-106.783 342.164 -74.9086 344.423 -34.554 347.283C0.190388 349.746 43.4305 352.809 89.1104 346.56C135.109 340.266 168.594 316.409 180.977 281.107C200.893 224.373 168.098 124.053 10.2148 28.0424C-144.655 -66.1341 -121.533 -93.239 -89.5274 -130.745C-73.0378 -150.072 -54.3351 -172.018 -55.1018 -208.229C-55.4405 -224.412 -64.6817 -238.793 -82.5682 -250.978C-162.105 -305.158 -387.943 -302.813 -421.901 -302.137Z" fill="#CFCCE0"/>
</svg>
