<svg width="479" height="700" viewBox="0 0 479 700" fill="none" xmlns="http://www.w3.org/2000/svg">
    <path d="M18.8691 894.13L-457.882 518.93C-457.882 518.93 -287.858 283.001 -228.638 325.405C-169.418 367.81 -257.537 466.522 -73.5578 380.227C110.421 293.932 191.27 370.165 136.183 463.361C81.095 556.558 -5.01307 598.032 71.7215 624.809C148.456 651.587 192.551 774.521 18.8691 894.13Z" fill="#C3ACFA" fill-opacity="0.5"/>
    <path d="M-227.595 700.249L-229.122 698.878C-107.064 551.506 -11.5075 470.301 47.1601 428.13C110.862 382.34 146.196 371.317 146.546 371.21L146.091 373.992C145.745 374.097 110.79 385.034 47.5406 430.531C-10.8587 472.539 -105.996 553.431 -227.595 700.249Z" fill="#F2F2F2"/>
    <path d="M-55.2909 836.353L-56.2667 834.412C43.3682 746.12 138.364 715.629 139.312 715.331L138.883 718.103C137.942 718.399 43.6366 748.689 -55.2909 836.353Z" fill="#F2F2F2"/>
    <path d="M80.8415 948.523L-512.036 481.932L-509.627 478.589C-503.634 470.273 -361.793 274.479 -270.3 236.794C-249.847 228.37 -233.309 228.514 -221.147 237.223C-195.359 255.671 -191.537 282.999 -188.408 304.983C-182.513 346.421 -178.62 373.798 -32.0069 305.029C126.821 230.529 214.44 256.565 241.22 301.506C258.521 330.545 254.427 370.912 229.989 412.259C206.847 451.409 179.144 483.506 156.885 509.297C133.067 536.891 114.255 558.688 113.489 574.672C112.854 588.012 124.398 598.356 149.819 607.223C201.521 625.266 248.887 681.921 230.703 763.674C220.921 807.657 187.344 875.177 82.9469 947.073L80.8415 948.523ZM-502.527 478.175L83.6366 939.481C162.234 884.886 210.732 824.676 223.952 765.241C240.633 690.245 197.052 632.751 145.375 614.72C117.757 605.085 105.775 593.657 106.54 577.678C107.473 558.137 127.557 534.868 152.983 505.409C174.876 480.046 202.121 448.48 224.627 410.405C247.29 372.063 251.037 334.546 234.906 307.473C208.99 263.954 123.499 239.051 -32.0927 312.031C-184.714 383.618 -189.16 352.412 -195.304 309.224C-198.473 286.971 -202.083 261.719 -226.485 244.257C-237.388 236.451 -252.291 236.355 -270.783 243.971C-353.011 277.839 -483.169 451.848 -502.527 478.175Z" fill="#CFCCE0"/>
</svg>
