<svg width="440" height="530" viewBox="0 0 440 530" fill="none" xmlns="http://www.w3.org/2000/svg">
    <g filter="url(#filter0_d_0_1)">
        <path d="M14 70C14 53.4315 27.4315 40 44 40H414V474C414 490.569 400.569 504 384 504H14V70Z" fill="#FADEAA"/>
    </g>
    <path d="M44.3774 3.15186L44.484 3.08669C46.3801 1.96528 48.5433 1.37305 50.7477 1.37305C52.9948 1.37305 55.199 1.98841 57.1212 3.15236C57.1215 3.15255 57.1218 3.15275 57.1221 3.15294L61.8308 6.03317L61.8309 6.03325C68.5276 10.1267 76.1403 11.0392 83.6605 11.9407L83.7302 11.9491L83.7304 11.9491L83.8919 11.9685C86.1442 12.2391 88.3866 12.5084 90.6068 12.8638C90.6076 12.9446 90.6085 13.0355 90.6095 13.1353C90.6136 13.5624 90.6185 14.1519 90.6217 14.8013C90.628 16.1028 90.6274 17.6361 90.5999 18.5885L90.1166 35.125C89.7045 49.167 83.4608 62.4869 72.7409 72.1709C67.6531 76.7654 62.4033 80.9052 56.3796 84.3407C54.6621 85.312 52.7366 85.8568 50.7648 85.9291C48.7928 86.0014 46.8323 85.5991 45.0482 84.7559C38.0897 81.4479 31.9278 77.253 26.2987 72.1709C15.5788 62.4869 9.33514 49.1671 8.9253 35.125L8.44431 18.6415L8.4443 18.6413C8.41569 17.6742 8.4156 16.1279 8.42283 14.8169C8.42644 14.1628 8.43185 13.5696 8.43636 13.1398C8.43734 13.0464 8.43828 12.9606 8.43915 12.8837C10.2583 12.6755 12.1091 12.4982 13.9789 12.3204C13.9789 12.3204 13.9789 12.3204 13.9789 12.3204L14.0415 12.3145C22.9079 11.4722 32.2106 10.5886 39.8611 5.91303L39.8611 5.91298L44.3774 3.15186ZM44.8751 21.1878H44.3751V21.6878V37.3753H28.6876H28.1876V37.8753V47.1253V47.6253H28.6876H44.3751V63.3128V63.8128H44.8751H54.1251H54.6251V63.3128V47.6253H70.3126H70.8126V47.1253V37.8753V37.3753H70.3126H54.6251V21.6878V21.1878H54.1251H44.8751Z" stroke="#39374D"/>
    <defs>
        <filter id="filter0_d_0_1" x="0" y="26" width="440" height="504" filterUnits="userSpaceOnUse" color-interpolation-filters="sRGB">
            <feFlood flood-opacity="0" result="BackgroundImageFix"/>
            <feColorMatrix in="SourceAlpha" type="matrix" values="0 0 0 0 0 0 0 0 0 0 0 0 0 0 0 0 0 0 127 0" result="hardAlpha"/>
            <feOffset dx="6" dy="6"/>
            <feGaussianBlur stdDeviation="10"/>
            <feComposite in2="hardAlpha" operator="out"/>
            <feColorMatrix type="matrix" values="0 0 0 0 0.308333 0 0 0 0 0.308333 0 0 0 0 0.308333 0 0 0 0.3 0"/>
            <feBlend mode="normal" in2="BackgroundImageFix" result="effect1_dropShadow_0_1"/>
            <feBlend mode="normal" in="SourceGraphic" in2="effect1_dropShadow_0_1" result="shape"/>
        </filter>
    </defs>
</svg>
