<svg width="520" height="428" viewBox="0 0 520 428" fill="none" xmlns="http://www.w3.org/2000/svg">
    <path d="M642.468 127.753L729.249 855.106C729.249 855.106 431.189 905.622 417.374 818.795C403.559 731.969 541.013 725.538 340.579 638.546C140.145 551.555 134.534 417.643 243.211 387.231C351.887 356.819 446.481 396.624 408.23 307.728C369.98 218.832 425.696 77.6028 642.468 127.753Z" fill="#C3ACFA" fill-opacity="0.5"/>
    <path d="M687.392 503.699L687.548 506.17C489.466 523.997 359.078 509.312 284.577 493.854C203.684 477.07 169.198 455.711 168.859 455.497L171.21 453.561C171.546 453.771 205.683 474.875 286.026 491.513C360.208 506.875 490.056 521.458 687.392 503.699Z" fill="#F2F2F2"/>
    <path d="M656.391 240.403L655.721 242.876C517.152 230.599 423.822 173.892 422.895 173.32L425.219 171.368C426.139 171.935 518.806 228.214 656.391 240.403Z" fill="#F2F2F2"/>
    <path d="M635.248 28.4943L743.168 933.014L738.944 933.73C728.438 935.511 480.526 976.792 384.628 929.149C363.19 918.498 350.881 904.055 348.045 886.223C342.017 848.429 358.891 822.212 372.424 801.076C397.936 761.237 414.791 734.918 255.065 665.596C82.0306 590.498 35.0751 492.798 47.4414 431.938C55.4346 392.615 87.6699 362.323 135.883 348.83C181.536 336.055 225.518 333.142 260.858 330.801C298.67 328.296 328.537 326.318 340.659 313.583C350.773 302.952 349.582 284.284 336.907 254.837C311.135 194.941 316.513 106.434 389.223 53.6562C428.341 25.261 502.322 -2.25732 632.62 27.8864L635.248 28.4943ZM733.316 927.929L626.618 33.6522C528.182 11.3495 448.283 19.8194 395.423 58.189C328.722 106.605 319.897 192.537 345.659 252.403C359.427 284.395 360.165 304.35 348.047 317.082C333.229 332.652 301.345 334.764 260.977 337.438C226.222 339.739 182.968 342.604 138.568 355.028C93.8583 367.54 63.9424 395.742 56.4916 432.404C44.5033 491.325 90.6807 586.231 260.188 659.801C426.46 731.964 407.253 761.971 380.664 803.493C366.966 824.89 351.433 849.182 357.133 884.95C359.677 900.935 370.794 913.921 390.176 923.551C476.362 966.371 699.767 933.232 733.316 927.929Z" fill="#CFCCE0"/>
</svg>
