<svg width="258" height="474" viewBox="0 0 258 474" fill="none" xmlns="http://www.w3.org/2000/svg">
    <path d="M335.203 27.6539L380.481 407.145C380.481 407.145 224.97 433.501 217.762 388.2C210.554 342.899 282.27 339.544 177.695 294.157C73.1195 248.77 70.1922 178.902 126.894 163.035C183.595 147.167 232.948 167.935 212.991 121.554C193.034 75.1737 222.104 1.48829 335.203 27.6539Z" fill="#C3ACFA" fill-opacity="0.5"/>
    <path d="M358.642 223.801L358.724 225.091C255.376 234.392 187.346 226.73 148.476 218.665C106.271 209.908 88.2781 198.764 88.101 198.652L89.3278 197.642C89.5029 197.752 107.314 208.762 149.232 217.443C187.936 225.458 255.683 233.067 358.642 223.801Z" fill="#F2F2F2"/>
    <path d="M342.468 86.4284L342.118 87.7184C269.82 81.3131 221.126 51.7267 220.642 51.4282L221.855 50.4099C222.335 50.7056 270.683 80.0686 342.468 86.4284Z" fill="#F2F2F2"/>
    <path d="M373.472 347.359L373.379 348.658C322.499 349.629 284.573 363.366 261.716 374.719C236.969 387.012 224.106 399.203 223.978 399.325L222.59 398.591C222.719 398.467 235.779 386.088 260.792 373.663C283.863 362.204 322.139 348.338 373.472 347.359Z" fill="#F2F2F2"/>
    <path d="M331.436 -24.1335L387.743 447.794L385.539 448.167C380.057 449.096 250.711 470.634 200.677 445.777C189.492 440.22 183.07 432.684 181.59 423.381C178.445 403.662 187.249 389.983 194.31 378.955C207.62 358.17 216.415 344.438 133.079 308.27C42.7989 269.088 18.3002 218.114 24.7523 186.36C28.9226 165.844 45.7412 150.04 70.8961 143C94.7154 136.334 117.663 134.814 136.101 133.593C155.829 132.286 171.412 131.254 177.737 124.609C183.014 119.063 182.392 109.323 175.779 93.9594C162.333 62.7089 165.138 16.531 203.074 -11.0054C223.484 -25.8204 262.083 -40.1779 330.065 -24.4506L331.436 -24.1335ZM382.602 445.14L326.934 -21.4424C275.575 -33.0787 233.889 -28.6596 206.309 -8.64044C171.508 16.6203 166.904 61.4548 180.345 92.6892C187.529 109.381 187.914 119.792 181.591 126.435C173.86 134.559 157.224 135.661 136.163 137.056C118.03 138.256 95.4623 139.751 72.297 146.233C48.9699 152.761 33.3615 167.476 29.4741 186.604C23.2193 217.345 47.312 266.862 135.751 305.246C222.503 342.897 212.481 358.553 198.609 380.217C191.462 391.38 183.358 404.054 186.332 422.716C187.659 431.056 193.459 437.832 203.572 442.856C248.539 465.197 365.099 447.907 382.602 445.14Z" fill="#CFCCE0"/>
</svg>
