<svg width="489" height="268" viewBox="0 0 489 268" fill="none" xmlns="http://www.w3.org/2000/svg">
    <path d="M493.77 261.867L240.011 507.832C240.011 507.832 133.478 408.217 162.76 377.529C192.042 346.841 234.699 397.711 209.48 295.357C184.262 193.003 234.013 151.697 277.458 184.512C320.904 217.326 333.285 265.266 356.217 224.596C379.148 183.925 449.637 164.015 493.77 261.867Z" fill="#C3ACFA" fill-opacity="0.5"/>
    <path d="M362.63 389.026L361.728 389.808C296.972 319.003 264.485 264.671 248.635 231.561C231.424 195.61 229.539 176.13 229.521 175.938L230.952 176.274C230.969 176.464 232.852 195.735 249.957 231.432C265.751 264.392 298.118 318.487 362.63 389.026Z" fill="#F2F2F2"/>
    <path d="M454.61 300.147L453.465 300.613C417.662 243.845 412.137 191.449 412.085 190.926L413.514 191.247C413.565 191.766 419.061 243.783 454.61 300.147Z" fill="#F2F2F2"/>
    <path d="M529.752 230.076L214.182 535.952L212.672 534.541C208.917 531.029 120.591 447.959 110.837 397.227C108.656 385.886 110.6 376.94 116.614 370.637C129.356 357.274 144.35 356.084 156.418 355.098C179.166 353.24 194.195 352.014 174.098 270.449C152.326 182.087 176.091 135.502 203.063 122.454C220.491 114.024 241.541 117.538 260.815 132.096C279.066 145.881 293.043 161.908 304.274 174.785C316.291 188.564 325.782 199.448 334.214 200.376C341.251 201.149 348.066 195.234 355.661 181.76C371.112 154.358 406.65 130.544 448.163 143.017C470.497 149.727 502.688 170.072 529.217 228.89L529.752 230.076ZM213.253 530.685L525.249 228.272C505.028 183.975 478.417 155.789 448.236 146.721C410.154 135.279 374.596 157.018 359.154 184.407C350.902 199.045 343.46 205.162 335.031 204.234C324.723 203.1 314.59 191.481 301.762 176.772C290.717 164.106 276.971 148.345 259.222 134.938C241.348 121.438 221.778 118.203 205.53 126.063C179.413 138.689 156.493 184.159 177.819 270.72C198.74 355.629 181.609 357.031 157.9 358.967C145.684 359.966 131.82 361.107 119.76 373.753C114.369 379.403 112.636 387.466 114.607 397.719C123.373 443.314 201.409 519.36 213.253 530.685Z" fill="#CFCCE0"/>
</svg>
